<?xml version="1.0" encoding="UTF-8"?>
<svg id="Vrstva_1" data-name="Vrstva 1" xmlns="http://www.w3.org/2000/svg" viewBox="0 0 200 200">
  <defs>
    <style>
      .cls-1 {
        fill: #313435;
      }
    </style>
  </defs>
  <circle class="cls-1" cx="100" cy="97.61" r="14.55" transform="translate(-5.53 189.22) rotate(-85.27)"/>
  <path class="cls-1" d="M100,2.17C45.97,2.17,2.17,45.97,2.17,100s43.8,97.83,97.83,97.83,97.83-43.8,97.83-97.83S154.03,2.17,100,2.17ZM164.43,104.2h-26.66c-2.41,13.88-12.27,25.19-25.32,29.67-2.11.72-2.89,3.31-1.62,5.14l7.35,10.64c1.23,1.78-.04,4.21-2.21,4.21h-18.86c-3.02,0-5.84-1.48-7.56-3.96l-20.34-29.44h.05c-4.87-6.54-7.74-14.66-7.6-23.48.3-18.39,14.01-34.01,31.75-37.13V16.01c0-3.16,2.59-5.75,5.75-5.75h1.68c3.16,0,5.75,2.59,5.75,5.75v43.83c15.89,2.75,28.43,15.29,31.18,31.18h26.66c3.16,0,5.75,2.59,5.75,5.75v1.68c0,3.16-2.59,5.75-5.75,5.75Z"/>
</svg>